# xmcd
#
# Track frame offsets: 
#        150
#        7724
#        21052
#        36773
#        46473
#        57077
#        66322
#        85819
#        97496
#        109088
#        118527
#        126901
#        137714
#        153476
#        164993
#        173861
#        185053
#        195734
#        203870
#        220072
#        230631
#        239689
#        249015
#        260673
#        271501
#        282142
#        292019
#        300141
#        318508
#        330340
#        340198
#        349551
#
# Disc length: 4785 seconds
#
# Revision: 0
# Processed by: cddbd v1.5.2PL0 Copyright (c) Steve Scherf et al.
# Submitted via: ExactAudioCopyFreeDBPlugin 1.0
#
DISCID=d612af20
DTITLE=Howard Crockett - The Many Moods Of The Mysterious Howard Crock
DTITLE=ett
DYEAR=2017
DGENRE=Country
TTITLE0=Your Messing Up Mind Mind
TTITLE1=You Can't Get Around To Them All, Jack
TTITLE2=The Big Cat
TTITLE3=Ask Little Brother
TTITLE4=The Big Day
TTITLE5=Soap And Water
TTITLE6=The Story Of Bango
TTITLE7=Man With No Face
TTITLE8=The Law Says
TTITLE9=Where Were You (When The Lights Went Out)
TTITLE10=Tall Man
TTITLE11=Count The Many Ways
TTITLE12=All For The Love Of A Girl
TTITLE13=Folsom Prison Blues
TTITLE14=Honky-Tonk Man
TTITLE15=Gonna Find Me A Bluebird
TTITLE16=I'd Like To Be Everybody For Just One Day
TTITLE17=All Grown Up
TTITLE18=Am I Losing You
TTITLE19=Ring Of Fire
TTITLE20=Slue-Foot
TTITLE21=Mr. Heartache
TTITLE22=The Times
TTITLE23=If Someone Must Go
TTITLE24=Green, Green Fire
TTITLE25=The High Roller
TTITLE26=I Can't Cry The Same Tears Twice
TTITLE27=Star
TTITLE28=The Word
TTITLE29=Anywhere The Love Light Shines
TTITLE30=Cross Eyed Mary
TTITLE31=The Battle Of New Orleans
EXTD=
EXTT0=
EXTT1=
EXTT2=
EXTT3=
EXTT4=
EXTT5=
EXTT6=
EXTT7=
EXTT8=
EXTT9=
EXTT10=
EXTT11=
EXTT12=
EXTT13=
EXTT14=
EXTT15=
EXTT16=
EXTT17=
EXTT18=
EXTT19=
EXTT20=
EXTT21=
EXTT22=
EXTT23=
EXTT24=
EXTT25=
EXTT26=
EXTT27=
EXTT28=
EXTT29=
EXTT30=
EXTT31=
PLAYORDER=
